<svg xmlns="http://www.w3.org/2000/svg" id="Layer_1" viewBox="0 0 390 390"><defs><style>.cls-2{fill:#fff}</style></defs><circle cx="195" cy="195" r="195" fill="#e95420"/><g><circle cx="97.12" cy="187.684" r="35.312" class="cls-2"/><circle cx="244.183" cy="110.253" r="35.312" class="cls-2"/><path d="M176.761 278.563c-25.435-5.45-46.695-21.698-58.646-44.728a50.833 50.833 0 0 1-30.192 3.711c14.463 35.507 45.126 61.3 82.765 69.365a116.343 116.343 0 0 0 25.075 2.58 50.527 50.527 0 0 1-10.34-29.523 87.831 87.831 0 0 1-8.662-1.405Z" class="cls-2"/><circle cx="236.227" cy="278.758" r="35.312" class="cls-2"/><path d="M285.365 265.788c10.984-13.838 18.71-30.205 22.438-47.598 6.498-30.327.43-62.144-16.648-87.955-4.065 9.58-10.974 17.687-19.857 23.256a86.376 86.376 0 0 1 8.156 58.624c-2.09 9.756-5.783 18.952-10.986 27.364a50.638 50.638 0 0 1 16.897 26.309ZM94.396 137.043c.896-.05 1.793-.074 2.69-.074 3.565 0 7.13.38 10.658 1.135a50.444 50.444 0 0 1 16.121 6.492c15.898-22.867 41.55-36.587 69.347-37.088a51.477 51.477 0 0 1 1.065-7.95 51.028 51.028 0 0 1 9.648-20.688c-44.406-3.517-87.554 19.398-109.53 58.173Z" class="cls-2"/></g></svg>