<svg xmlns="http://www.w3.org/2000/svg" width="500" height="500"><g fill="none" fill-rule="evenodd"><g fill="#a80030" fill-rule="nonzero" transform="translate(48)"><path d="M240.845 264.986c-8.168.114 1.546 4.21 12.21 5.85 2.945-2.3 5.618-4.627 8-6.89-6.641 1.627-13.4 1.663-20.21 1.04M284.686 254.06c4.864-6.715 8.41-14.065 9.66-21.665-1.091 5.419-4.032 10.096-6.8 15.032-15.269 9.614-1.437-5.709-.01-11.532-16.418 20.664-2.254 12.391-2.85 18.164M300.868 211.95c.987-14.71-2.895-10.06-4.2-4.445 1.523.79 2.727 10.368 4.2 4.445M209.873 10.905c4.359.781 9.418 1.381 8.709 2.422 4.768-1.045 5.85-2.009-8.71-2.422M218.582 13.327l-3.082.637 2.868-.255z"/><path d="M354.51 217.527c.485 13.21-3.865 19.618-7.787 30.964l-7.06 3.527c-5.777 11.218.56 7.123-3.577 16.046-9.018 8.018-27.368 25.09-33.24 26.65-4.287-.096 2.904-5.06 3.845-7.005-12.073 8.291-9.686 12.446-28.15 17.482l-.541-1.2c-45.536 21.423-108.79-21.032-107.96-78.96-.485 3.678-1.38 2.76-2.39 4.246-2.35-29.804 13.764-59.74 40.94-71.963 26.583-13.16 57.746-7.76 76.787 9.986-10.459-13.7-31.277-28.223-55.95-26.864-24.168.382-46.777 15.741-54.322 32.414-12.382 7.795-13.819 30.05-19.214 34.123-7.26 53.35 13.654 76.4 49.032 103.513 5.568 3.755 1.568 4.323 2.322 7.182-11.754-5.504-22.518-13.813-31.368-23.986 4.696 6.873 9.764 13.554 16.314 18.804-11.082-3.754-25.886-26.854-30.21-27.795 19.105 34.204 77.51 59.986 108.092 47.195-14.15.523-32.128.291-48.028-5.586-6.677-3.436-15.759-10.555-14.136-11.886 41.736 15.59 84.85 11.809 120.964-17.141 9.186-7.155 19.222-19.328 22.122-19.496-4.368 6.568.746 3.16-2.609 8.96 9.155-14.764-3.977-6.01 9.464-25.496l4.964 6.836c-1.846-12.254 15.218-27.136 13.486-46.518 3.914-5.927 4.368 6.377.214 20.014 5.763-15.128 1.518-17.56 3-30.041 1.6 4.195 3.7 8.654 4.777 13.082-3.755-14.619 3.854-24.619 5.736-33.114-1.854-.823-5.795 6.464-6.695-10.805.132-7.5 2.086-3.931 2.84-5.777-1.472-.845-5.336-6.595-7.686-17.623 1.705-2.59 4.555 6.719 6.873 7.1-1.49-8.768-4.059-15.454-4.164-22.181-6.772-14.155-2.395 1.886-7.89-6.078-7.21-22.486 5.981-5.218 6.872-15.436 10.928 15.832 17.16 40.368 20.018 50.532-2.181-12.391-5.709-24.396-10.013-36.01 3.318 1.396-5.346-25.495 4.313-7.686-10.318-37.963-44.159-73.436-75.29-90.081 3.809 3.486 8.618 7.863 6.89 8.55-15.481-9.219-12.759-9.937-14.977-13.832-12.613-5.132-13.44.413-21.795.009-23.773-12.61-28.355-11.268-50.232-19.168l.995 4.65c-15.75-5.246-18.35 1.99-35.372.018-1.037-.81 5.454-2.927 10.795-3.705-15.227 2.01-14.514-3-29.414.555 3.673-2.577 7.555-4.282 11.473-6.473-12.418.755-29.645 7.227-24.327 1.341-20.255 9.036-56.227 21.723-76.414 40.65l-.636-4.24c-9.25 11.104-40.336 33.163-42.814 47.545l-2.472.577c-4.814 8.15-7.928 17.386-11.746 25.773-6.295 10.727-9.227 4.127-8.332 5.809-12.382 25.104-18.532 46.2-23.845 63.5 3.786 5.659.09 34.068 1.523 56.804C2.286 358.11 87.314 467.136 180.255 492.31c13.622 4.873 33.881 4.686 51.113 5.186-20.332-5.813-22.959-3.081-42.763-9.986-14.287-6.727-17.419-14.409-27.537-23.19l4.005 7.076c-19.846-7.022-11.541-8.69-27.687-13.804l4.278-5.586c-6.432-.487-17.037-10.841-19.937-16.573l-7.036.277c-8.455-10.432-12.96-17.95-12.632-23.773l-2.273 4.05c-2.577-4.422-31.104-39.122-16.304-31.045-2.75-2.514-6.405-4.091-10.368-11.291l3.013-3.445c-7.122-9.164-13.109-20.91-12.654-24.823 3.8 5.132 6.436 6.09 9.045 6.968-17.986-44.627-18.995-2.46-32.618-45.427l2.882-.232c-2.21-3.327-3.55-6.941-5.327-10.486l1.254-12.5c-12.95-14.973-3.623-63.664-1.754-90.369C38.25 182.477 47.764 170.918 55 152.791l-4.41-.76c8.428-14.7 48.12-59.036 66.5-56.754 8.905-11.186-1.767-.04-3.508-2.859 19.559-20.24 25.709-14.3 38.909-17.94 14.236-8.45-12.218 3.295-5.468-3.223 24.609-6.287 17.44-14.291 49.545-17.482 3.387 1.927-7.859 2.977-10.682 5.477 20.505-10.032 64.887-7.75 93.714 5.568 33.45 15.632 71.032 61.841 72.514 105.318l1.686.455c-.855 17.282 2.645 37.268-3.418 55.627z"/><path d="m151.69 276.2-1.145 5.727c5.369 7.291 9.628 15.191 16.482 20.891-4.932-9.627-8.595-13.604-15.336-26.618M164.382 275.7c-2.841-3.14-4.523-6.923-6.405-10.69 1.8 6.622 5.487 12.313 8.918 18.1zM388.945 226.89l-1.2 3.01c-2.2 15.627-6.95 31.09-14.231 45.427 8.045-15.127 13.25-31.672 15.431-48.436M211.486 6.986c5.523-2.022 13.578-1.109 19.437-2.44-7.637.64-15.237 1.022-22.741 1.99zM17.6 110.086c1.273 11.782-8.864 16.355 2.245 8.587 5.955-13.414-2.327-3.705-2.245-8.587M4.545 164.614c2.56-7.855 3.023-12.573 4-17.119-7.072 9.041-3.254 10.969-4 17.119"/></g></g></svg>